<?xml version="1.0" encoding="utf-8" standalone="no"?>
<!DOCTYPE svg PUBLIC "-//W3C//DTD SVG 1.1//EN"
  "http://www.w3.org/Graphics/SVG/1.1/DTD/svg11.dtd">
<svg xmlns:xlink="http://www.w3.org/1999/xlink" width="1296pt" height="432pt" viewBox="0 0 1296 432" xmlns="http://www.w3.org/2000/svg" version="1.1">
 <metadata>
  <rdf:RDF xmlns:dc="http://purl.org/dc/elements/1.1/" xmlns:cc="http://creativecommons.org/ns#" xmlns:rdf="http://www.w3.org/1999/02/22-rdf-syntax-ns#">
   <cc:Work>
    <dc:type rdf:resource="http://purl.org/dc/dcmitype/StillImage"/>
    <dc:date>2023-04-13T11:11:19.849411</dc:date>
    <dc:format>image/svg+xml</dc:format>
    <dc:creator>
     <cc:Agent>
      <dc:title>Matplotlib v3.5.1, https://matplotlib.org/</dc:title>
     </cc:Agent>
    </dc:creator>
   </cc:Work>
  </rdf:RDF>
 </metadata>
 <defs>
  <style type="text/css">*{stroke-linejoin: round; stroke-linecap: butt}</style>
 </defs>
 <g id="figure_1">
  <g id="patch_1">
   <path d="M 0 432 
L 1296 432 
L 1296 0 
L 0 0 
z
" style="fill: #ffffff"/>
  </g>
  <g id="axes_1">
   <g id="patch_2">
    <path d="M 162 384.48 
L 1166.4 384.48 
L 1166.4 51.84 
L 162 51.84 
z
" style="fill: #ffffff"/>
   </g>
   <g id="patch_3">
    <path d="M 166.923529 384.48 
L 176.770588 384.48 
L 176.770588 67.68 
L 166.923529 67.68 
z
" clip-path="url(#pf78ff0836a)" style="fill: #1f77b4"/>
   </g>
   <g id="patch_4">
    <path d="M 186.617647 384.48 
L 196.464706 384.48 
L 196.464706 133.847089 
L 186.617647 133.847089 
z
" clip-path="url(#pf78ff0836a)" style="fill: #1f77b4"/>
   </g>
   <g id="patch_5">
    <path d="M 206.311765 384.48 
L 216.158824 384.48 
L 216.158824 135.852152 
L 206.311765 135.852152 
z
" clip-path="url(#pf78ff0836a)" style="fill: #1f77b4"/>
   </g>
   <g id="patch_6">
    <path d="M 226.005882 384.48 
L 235.852941 384.48 
L 235.852941 145.877468 
L 226.005882 145.877468 
z
" clip-path="url(#pf78ff0836a)" style="fill: #1f77b4"/>
   </g>
   <g id="patch_7">
    <path d="M 245.7 384.48 
L 255.547059 384.48 
L 255.547059 147.882532 
L 245.7 147.882532 
z
" clip-path="url(#pf78ff0836a)" style="fill: #1f77b4"/>
   </g>
   <g id="patch_8">
    <path d="M 265.394118 384.48 
L 275.241176 384.48 
L 275.241176 151.892658 
L 265.394118 151.892658 
z
" clip-path="url(#pf78ff0836a)" style="fill: #1f77b4"/>
   </g>
   <g id="patch_9">
    <path d="M 285.088235 384.48 
L 294.935294 384.48 
L 294.935294 151.892658 
L 285.088235 151.892658 
z
" clip-path="url(#pf78ff0836a)" style="fill: #1f77b4"/>
   </g>
   <g id="patch_10">
    <path d="M 304.782353 384.48 
L 314.629412 384.48 
L 314.629412 153.897722 
L 304.782353 153.897722 
z
" clip-path="url(#pf78ff0836a)" style="fill: #1f77b4"/>
   </g>
   <g id="patch_11">
    <path d="M 324.476471 384.48 
L 334.323529 384.48 
L 334.323529 155.902785 
L 324.476471 155.902785 
z
" clip-path="url(#pf78ff0836a)" style="fill: #1f77b4"/>
   </g>
   <g id="patch_12">
    <path d="M 344.170588 384.48 
L 354.017647 384.48 
L 354.017647 155.902785 
L 344.170588 155.902785 
z
" clip-path="url(#pf78ff0836a)" style="fill: #1f77b4"/>
   </g>
   <g id="patch_13">
    <path d="M 363.864706 384.48 
L 373.711765 384.48 
L 373.711765 159.912911 
L 363.864706 159.912911 
z
" clip-path="url(#pf78ff0836a)" style="fill: #1f77b4"/>
   </g>
   <g id="patch_14">
    <path d="M 383.558824 384.48 
L 393.405882 384.48 
L 393.405882 159.912911 
L 383.558824 159.912911 
z
" clip-path="url(#pf78ff0836a)" style="fill: #1f77b4"/>
   </g>
   <g id="patch_15">
    <path d="M 403.252941 384.48 
L 413.1 384.48 
L 413.1 171.943291 
L 403.252941 171.943291 
z
" clip-path="url(#pf78ff0836a)" style="fill: #1f77b4"/>
   </g>
   <g id="patch_16">
    <path d="M 422.947059 384.48 
L 432.794118 384.48 
L 432.794118 177.958481 
L 422.947059 177.958481 
z
" clip-path="url(#pf78ff0836a)" style="fill: #1f77b4"/>
   </g>
   <g id="patch_17">
    <path d="M 442.641176 384.48 
L 452.488235 384.48 
L 452.488235 177.958481 
L 442.641176 177.958481 
z
" clip-path="url(#pf78ff0836a)" style="fill: #1f77b4"/>
   </g>
   <g id="patch_18">
    <path d="M 462.335294 384.48 
L 472.182353 384.48 
L 472.182353 177.958481 
L 462.335294 177.958481 
z
" clip-path="url(#pf78ff0836a)" style="fill: #1f77b4"/>
   </g>
   <g id="patch_19">
    <path d="M 482.029412 384.48 
L 491.876471 384.48 
L 491.876471 179.963544 
L 482.029412 179.963544 
z
" clip-path="url(#pf78ff0836a)" style="fill: #1f77b4"/>
   </g>
   <g id="patch_20">
    <path d="M 501.723529 384.48 
L 511.570588 384.48 
L 511.570588 181.968608 
L 501.723529 181.968608 
z
" clip-path="url(#pf78ff0836a)" style="fill: #1f77b4"/>
   </g>
   <g id="patch_21">
    <path d="M 521.417647 384.48 
L 531.264706 384.48 
L 531.264706 185.978734 
L 521.417647 185.978734 
z
" clip-path="url(#pf78ff0836a)" style="fill: #1f77b4"/>
   </g>
   <g id="patch_22">
    <path d="M 541.111765 384.48 
L 550.958824 384.48 
L 550.958824 185.978734 
L 541.111765 185.978734 
z
" clip-path="url(#pf78ff0836a)" style="fill: #1f77b4"/>
   </g>
   <g id="patch_23">
    <path d="M 560.805882 384.48 
L 570.652941 384.48 
L 570.652941 185.978734 
L 560.805882 185.978734 
z
" clip-path="url(#pf78ff0836a)" style="fill: #1f77b4"/>
   </g>
   <g id="patch_24">
    <path d="M 580.5 384.48 
L 590.347059 384.48 
L 590.347059 185.978734 
L 580.5 185.978734 
z
" clip-path="url(#pf78ff0836a)" style="fill: #1f77b4"/>
   </g>
   <g id="patch_25">
    <path d="M 600.194118 384.48 
L 610.041176 384.48 
L 610.041176 185.978734 
L 600.194118 185.978734 
z
" clip-path="url(#pf78ff0836a)" style="fill: #1f77b4"/>
   </g>
   <g id="patch_26">
    <path d="M 619.888235 384.48 
L 629.735294 384.48 
L 629.735294 185.978734 
L 619.888235 185.978734 
z
" clip-path="url(#pf78ff0836a)" style="fill: #1f77b4"/>
   </g>
   <g id="patch_27">
    <path d="M 639.582353 384.48 
L 649.429412 384.48 
L 649.429412 187.983797 
L 639.582353 187.983797 
z
" clip-path="url(#pf78ff0836a)" style="fill: #1f77b4"/>
   </g>
   <g id="patch_28">
    <path d="M 659.276471 384.48 
L 669.123529 384.48 
L 669.123529 187.983797 
L 659.276471 187.983797 
z
" clip-path="url(#pf78ff0836a)" style="fill: #1f77b4"/>
   </g>
   <g id="patch_29">
    <path d="M 678.970588 384.48 
L 688.817647 384.48 
L 688.817647 191.993924 
L 678.970588 191.993924 
z
" clip-path="url(#pf78ff0836a)" style="fill: #1f77b4"/>
   </g>
   <g id="patch_30">
    <path d="M 698.664706 384.48 
L 708.511765 384.48 
L 708.511765 193.998987 
L 698.664706 193.998987 
z
" clip-path="url(#pf78ff0836a)" style="fill: #1f77b4"/>
   </g>
   <g id="patch_31">
    <path d="M 718.358824 384.48 
L 728.205882 384.48 
L 728.205882 196.004051 
L 718.358824 196.004051 
z
" clip-path="url(#pf78ff0836a)" style="fill: #1f77b4"/>
   </g>
   <g id="patch_32">
    <path d="M 738.052941 384.48 
L 747.9 384.48 
L 747.9 198.009114 
L 738.052941 198.009114 
z
" clip-path="url(#pf78ff0836a)" style="fill: #1f77b4"/>
   </g>
   <g id="patch_33">
    <path d="M 757.747059 384.48 
L 767.594118 384.48 
L 767.594118 200.014177 
L 757.747059 200.014177 
z
" clip-path="url(#pf78ff0836a)" style="fill: #1f77b4"/>
   </g>
   <g id="patch_34">
    <path d="M 777.441176 384.48 
L 787.288235 384.48 
L 787.288235 202.019241 
L 777.441176 202.019241 
z
" clip-path="url(#pf78ff0836a)" style="fill: #1f77b4"/>
   </g>
   <g id="patch_35">
    <path d="M 797.135294 384.48 
L 806.982353 384.48 
L 806.982353 202.019241 
L 797.135294 202.019241 
z
" clip-path="url(#pf78ff0836a)" style="fill: #1f77b4"/>
   </g>
   <g id="patch_36">
    <path d="M 816.829412 384.48 
L 826.676471 384.48 
L 826.676471 202.019241 
L 816.829412 202.019241 
z
" clip-path="url(#pf78ff0836a)" style="fill: #1f77b4"/>
   </g>
   <g id="patch_37">
    <path d="M 836.523529 384.48 
L 846.370588 384.48 
L 846.370588 204.024304 
L 836.523529 204.024304 
z
" clip-path="url(#pf78ff0836a)" style="fill: #1f77b4"/>
   </g>
   <g id="patch_38">
    <path d="M 856.217647 384.48 
L 866.064706 384.48 
L 866.064706 204.024304 
L 856.217647 204.024304 
z
" clip-path="url(#pf78ff0836a)" style="fill: #1f77b4"/>
   </g>
   <g id="patch_39">
    <path d="M 875.911765 384.48 
L 885.758824 384.48 
L 885.758824 204.024304 
L 875.911765 204.024304 
z
" clip-path="url(#pf78ff0836a)" style="fill: #1f77b4"/>
   </g>
   <g id="patch_40">
    <path d="M 895.605882 384.48 
L 905.452941 384.48 
L 905.452941 206.029367 
L 895.605882 206.029367 
z
" clip-path="url(#pf78ff0836a)" style="fill: #1f77b4"/>
   </g>
   <g id="patch_41">
    <path d="M 915.3 384.48 
L 925.147059 384.48 
L 925.147059 206.029367 
L 915.3 206.029367 
z
" clip-path="url(#pf78ff0836a)" style="fill: #1f77b4"/>
   </g>
   <g id="patch_42">
    <path d="M 934.994118 384.48 
L 944.841176 384.48 
L 944.841176 208.03443 
L 934.994118 208.03443 
z
" clip-path="url(#pf78ff0836a)" style="fill: #1f77b4"/>
   </g>
   <g id="patch_43">
    <path d="M 954.688235 384.48 
L 964.535294 384.48 
L 964.535294 208.03443 
L 954.688235 208.03443 
z
" clip-path="url(#pf78ff0836a)" style="fill: #1f77b4"/>
   </g>
   <g id="patch_44">
    <path d="M 974.382353 384.48 
L 984.229412 384.48 
L 984.229412 208.03443 
L 974.382353 208.03443 
z
" clip-path="url(#pf78ff0836a)" style="fill: #1f77b4"/>
   </g>
   <g id="patch_45">
    <path d="M 994.076471 384.48 
L 1003.923529 384.48 
L 1003.923529 208.03443 
L 994.076471 208.03443 
z
" clip-path="url(#pf78ff0836a)" style="fill: #1f77b4"/>
   </g>
   <g id="patch_46">
    <path d="M 1013.770588 384.48 
L 1023.617647 384.48 
L 1023.617647 212.044557 
L 1013.770588 212.044557 
z
" clip-path="url(#pf78ff0836a)" style="fill: #1f77b4"/>
   </g>
   <g id="patch_47">
    <path d="M 1033.464706 384.48 
L 1043.311765 384.48 
L 1043.311765 214.04962 
L 1033.464706 214.04962 
z
" clip-path="url(#pf78ff0836a)" style="fill: #1f77b4"/>
   </g>
   <g id="patch_48">
    <path d="M 1053.158824 384.48 
L 1063.005882 384.48 
L 1063.005882 218.059747 
L 1053.158824 218.059747 
z
" clip-path="url(#pf78ff0836a)" style="fill: #1f77b4"/>
   </g>
   <g id="patch_49">
    <path d="M 1072.852941 384.48 
L 1082.7 384.48 
L 1082.7 220.06481 
L 1072.852941 220.06481 
z
" clip-path="url(#pf78ff0836a)" style="fill: #1f77b4"/>
   </g>
   <g id="patch_50">
    <path d="M 1092.547059 384.48 
L 1102.394118 384.48 
L 1102.394118 230.090127 
L 1092.547059 230.090127 
z
" clip-path="url(#pf78ff0836a)" style="fill: #1f77b4"/>
   </g>
   <g id="patch_51">
    <path d="M 1112.241176 384.48 
L 1122.088235 384.48 
L 1122.088235 240.115443 
L 1112.241176 240.115443 
z
" clip-path="url(#pf78ff0836a)" style="fill: #1f77b4"/>
   </g>
   <g id="patch_52">
    <path d="M 1131.935294 384.48 
L 1141.782353 384.48 
L 1141.782353 246.130633 
L 1131.935294 246.130633 
z
" clip-path="url(#pf78ff0836a)" style="fill: #1f77b4"/>
   </g>
   <g id="patch_53">
    <path d="M 1151.629412 384.48 
L 1161.476471 384.48 
L 1161.476471 280.216709 
L 1151.629412 280.216709 
z
" clip-path="url(#pf78ff0836a)" style="fill: #1f77b4"/>
   </g>
   <g id="matplotlib.axis_1">
    <g id="xtick_1">
     <g id="line2d_1">
      <defs>
       <path id="mbebeec0297" d="M 0 0 
L 0 3.5 
" style="stroke: #000000; stroke-width: 0.8"/>
      </defs>
      <g>
       <use xlink:href="#mbebeec0297" x="171.847059" y="384.48" style="stroke: #000000; stroke-width: 0.8"/>
      </g>
     </g>
     <g id="text_1">
      <!-- WV -->
      <g transform="translate(174.606434 408.208125)rotate(-90)scale(0.1 -0.1)">
       <defs>
        <path id="DejaVuSans-57" d="M 213 4666 
L 850 4666 
L 1831 722 
L 2809 4666 
L 3519 4666 
L 4500 722 
L 5478 4666 
L 6119 4666 
L 4947 0 
L 4153 0 
L 3169 4050 
L 2175 0 
L 1381 0 
L 213 4666 
z
" transform="scale(0.015625)"/>
        <path id="DejaVuSans-56" d="M 1831 0 
L 50 4666 
L 709 4666 
L 2188 738 
L 3669 4666 
L 4325 4666 
L 2547 0 
L 1831 0 
z
" transform="scale(0.015625)"/>
       </defs>
       <use xlink:href="#DejaVuSans-57"/>
       <use xlink:href="#DejaVuSans-56" x="98.876953"/>
      </g>
     </g>
    </g>
    <g id="xtick_2">
     <g id="line2d_2">
      <g>
       <use xlink:href="#mbebeec0297" x="191.541176" y="384.48" style="stroke: #000000; stroke-width: 0.8"/>
      </g>
     </g>
     <g id="text_2">
      <!-- MN -->
      <g transform="translate(194.300551 407.589375)rotate(-90)scale(0.1 -0.1)">
       <defs>
        <path id="DejaVuSans-4d" d="M 628 4666 
L 1569 4666 
L 2759 1491 
L 3956 4666 
L 4897 4666 
L 4897 0 
L 4281 0 
L 4281 4097 
L 3078 897 
L 2444 897 
L 1241 4097 
L 1241 0 
L 628 0 
L 628 4666 
z
" transform="scale(0.015625)"/>
        <path id="DejaVuSans-4e" d="M 628 4666 
L 1478 4666 
L 3547 763 
L 3547 4666 
L 4159 4666 
L 4159 0 
L 3309 0 
L 1241 3903 
L 1241 0 
L 628 0 
L 628 4666 
z
" transform="scale(0.015625)"/>
       </defs>
       <use xlink:href="#DejaVuSans-4d"/>
       <use xlink:href="#DejaVuSans-4e" x="86.279297"/>
      </g>
     </g>
    </g>
    <g id="xtick_3">
     <g id="line2d_3">
      <g>
       <use xlink:href="#mbebeec0297" x="211.235294" y="384.48" style="stroke: #000000; stroke-width: 0.8"/>
      </g>
     </g>
     <g id="text_3">
      <!-- AL -->
      <g transform="translate(213.994669 403.8925)rotate(-90)scale(0.1 -0.1)">
       <defs>
        <path id="DejaVuSans-41" d="M 2188 4044 
L 1331 1722 
L 3047 1722 
L 2188 4044 
z
M 1831 4666 
L 2547 4666 
L 4325 0 
L 3669 0 
L 3244 1197 
L 1141 1197 
L 716 0 
L 50 0 
L 1831 4666 
z
" transform="scale(0.015625)"/>
        <path id="DejaVuSans-4c" d="M 628 4666 
L 1259 4666 
L 1259 531 
L 3531 531 
L 3531 0 
L 628 0 
L 628 4666 
z
" transform="scale(0.015625)"/>
       </defs>
       <use xlink:href="#DejaVuSans-41"/>
       <use xlink:href="#DejaVuSans-4c" x="68.408203"/>
      </g>
     </g>
    </g>
    <g id="xtick_4">
     <g id="line2d_4">
      <g>
       <use xlink:href="#mbebeec0297" x="230.929412" y="384.48" style="stroke: #000000; stroke-width: 0.8"/>
      </g>
     </g>
     <g id="text_4">
      <!-- ID -->
      <g transform="translate(233.688787 402.13)rotate(-90)scale(0.1 -0.1)">
       <defs>
        <path id="DejaVuSans-49" d="M 628 4666 
L 1259 4666 
L 1259 0 
L 628 0 
L 628 4666 
z
" transform="scale(0.015625)"/>
        <path id="DejaVuSans-44" d="M 1259 4147 
L 1259 519 
L 2022 519 
Q 2988 519 3436 956 
Q 3884 1394 3884 2338 
Q 3884 3275 3436 3711 
Q 2988 4147 2022 4147 
L 1259 4147 
z
M 628 4666 
L 1925 4666 
Q 3281 4666 3915 4102 
Q 4550 3538 4550 2338 
Q 4550 1131 3912 565 
Q 3275 0 1925 0 
L 628 0 
L 628 4666 
z
" transform="scale(0.015625)"/>
       </defs>
       <use xlink:href="#DejaVuSans-49"/>
       <use xlink:href="#DejaVuSans-44" x="29.492188"/>
      </g>
     </g>
    </g>
    <g id="xtick_5">
     <g id="line2d_5">
      <g>
       <use xlink:href="#mbebeec0297" x="250.623529" y="384.48" style="stroke: #000000; stroke-width: 0.8"/>
      </g>
     </g>
     <g id="text_5">
      <!-- VA -->
      <g transform="translate(253.382904 404.52375)rotate(-90)scale(0.1 -0.1)">
       <use xlink:href="#DejaVuSans-56"/>
       <use xlink:href="#DejaVuSans-41" x="62.033203"/>
      </g>
     </g>
    </g>
    <g id="xtick_6">
     <g id="line2d_6">
      <g>
       <use xlink:href="#mbebeec0297" x="270.317647" y="384.48" style="stroke: #000000; stroke-width: 0.8"/>
      </g>
     </g>
     <g id="text_6">
      <!-- OH -->
      <g transform="translate(273.077022 406.872187)rotate(-90)scale(0.1 -0.1)">
       <defs>
        <path id="DejaVuSans-4f" d="M 2522 4238 
Q 1834 4238 1429 3725 
Q 1025 3213 1025 2328 
Q 1025 1447 1429 934 
Q 1834 422 2522 422 
Q 3209 422 3611 934 
Q 4013 1447 4013 2328 
Q 4013 3213 3611 3725 
Q 3209 4238 2522 4238 
z
M 2522 4750 
Q 3503 4750 4090 4092 
Q 4678 3434 4678 2328 
Q 4678 1225 4090 567 
Q 3503 -91 2522 -91 
Q 1538 -91 948 565 
Q 359 1222 359 2328 
Q 359 3434 948 4092 
Q 1538 4750 2522 4750 
z
" transform="scale(0.015625)"/>
        <path id="DejaVuSans-48" d="M 628 4666 
L 1259 4666 
L 1259 2753 
L 3553 2753 
L 3553 4666 
L 4184 4666 
L 4184 0 
L 3553 0 
L 3553 2222 
L 1259 2222 
L 1259 0 
L 628 0 
L 628 4666 
z
" transform="scale(0.015625)"/>
       </defs>
       <use xlink:href="#DejaVuSans-4f"/>
       <use xlink:href="#DejaVuSans-48" x="78.710938"/>
      </g>
     </g>
    </g>
    <g id="xtick_7">
     <g id="line2d_7">
      <g>
       <use xlink:href="#mbebeec0297" x="290.011765" y="384.48" style="stroke: #000000; stroke-width: 0.8"/>
      </g>
     </g>
     <g id="text_7">
      <!-- TX -->
      <g transform="translate(292.77114 404.437813)rotate(-90)scale(0.1 -0.1)">
       <defs>
        <path id="DejaVuSans-54" d="M -19 4666 
L 3928 4666 
L 3928 4134 
L 2272 4134 
L 2272 0 
L 1638 0 
L 1638 4134 
L -19 4134 
L -19 4666 
z
" transform="scale(0.015625)"/>
        <path id="DejaVuSans-58" d="M 403 4666 
L 1081 4666 
L 2241 2931 
L 3406 4666 
L 4084 4666 
L 2584 2425 
L 4184 0 
L 3506 0 
L 2194 1984 
L 872 0 
L 191 0 
L 1856 2491 
L 403 4666 
z
" transform="scale(0.015625)"/>
       </defs>
       <use xlink:href="#DejaVuSans-54"/>
       <use xlink:href="#DejaVuSans-58" x="61.083984"/>
      </g>
     </g>
    </g>
    <g id="xtick_8">
     <g id="line2d_8">
      <g>
       <use xlink:href="#mbebeec0297" x="309.705882" y="384.48" style="stroke: #000000; stroke-width: 0.8"/>
      </g>
     </g>
     <g id="text_8">
      <!-- WY -->
      <g transform="translate(312.465257 407.475313)rotate(-90)scale(0.1 -0.1)">
       <defs>
        <path id="DejaVuSans-59" d="M -13 4666 
L 666 4666 
L 1959 2747 
L 3244 4666 
L 3922 4666 
L 2272 2222 
L 2272 0 
L 1638 0 
L 1638 2222 
L -13 4666 
z
" transform="scale(0.015625)"/>
       </defs>
       <use xlink:href="#DejaVuSans-57"/>
       <use xlink:href="#DejaVuSans-59" x="98.876953"/>
      </g>
     </g>
    </g>
    <g id="xtick_9">
     <g id="line2d_9">
      <g>
       <use xlink:href="#mbebeec0297" x="329.4" y="384.48" style="stroke: #000000; stroke-width: 0.8"/>
      </g>
     </g>
     <g id="text_9">
      <!-- NY -->
      <g transform="translate(332.159375 405.069063)rotate(-90)scale(0.1 -0.1)">
       <use xlink:href="#DejaVuSans-4e"/>
       <use xlink:href="#DejaVuSans-59" x="74.804688"/>
      </g>
     </g>
    </g>
    <g id="xtick_10">
     <g id="line2d_10">
      <g>
       <use xlink:href="#mbebeec0297" x="349.094118" y="384.48" style="stroke: #000000; stroke-width: 0.8"/>
      </g>
     </g>
     <g id="text_10">
      <!-- OR -->
      <g transform="translate(351.853493 406.300313)rotate(-90)scale(0.1 -0.1)">
       <defs>
        <path id="DejaVuSans-52" d="M 2841 2188 
Q 3044 2119 3236 1894 
Q 3428 1669 3622 1275 
L 4263 0 
L 3584 0 
L 2988 1197 
Q 2756 1666 2539 1819 
Q 2322 1972 1947 1972 
L 1259 1972 
L 1259 0 
L 628 0 
L 628 4666 
L 2053 4666 
Q 2853 4666 3247 4331 
Q 3641 3997 3641 3322 
Q 3641 2881 3436 2590 
Q 3231 2300 2841 2188 
z
M 1259 4147 
L 1259 2491 
L 2053 2491 
Q 2509 2491 2742 2702 
Q 2975 2913 2975 3322 
Q 2975 3731 2742 3939 
Q 2509 4147 2053 4147 
L 1259 4147 
z
" transform="scale(0.015625)"/>
       </defs>
       <use xlink:href="#DejaVuSans-4f"/>
       <use xlink:href="#DejaVuSans-52" x="78.710938"/>
      </g>
     </g>
    </g>
    <g id="xtick_11">
     <g id="line2d_11">
      <g>
       <use xlink:href="#mbebeec0297" x="368.788235" y="384.48" style="stroke: #000000; stroke-width: 0.8"/>
      </g>
     </g>
     <g id="text_11">
      <!-- NJ -->
      <g transform="translate(371.54761 401.91125)rotate(-90)scale(0.1 -0.1)">
       <defs>
        <path id="DejaVuSans-4a" d="M 628 4666 
L 1259 4666 
L 1259 325 
Q 1259 -519 939 -900 
Q 619 -1281 -91 -1281 
L -331 -1281 
L -331 -750 
L -134 -750 
Q 284 -750 456 -515 
Q 628 -281 628 325 
L 628 4666 
z
" transform="scale(0.015625)"/>
       </defs>
       <use xlink:href="#DejaVuSans-4e"/>
       <use xlink:href="#DejaVuSans-4a" x="74.804688"/>
      </g>
     </g>
    </g>
    <g id="xtick_12">
     <g id="line2d_12">
      <g>
       <use xlink:href="#mbebeec0297" x="388.482353" y="384.48" style="stroke: #000000; stroke-width: 0.8"/>
      </g>
     </g>
     <g id="text_12">
      <!-- UT -->
      <g transform="translate(391.241728 404.906563)rotate(-90)scale(0.1 -0.1)">
       <defs>
        <path id="DejaVuSans-55" d="M 556 4666 
L 1191 4666 
L 1191 1831 
Q 1191 1081 1462 751 
Q 1734 422 2344 422 
Q 2950 422 3222 751 
Q 3494 1081 3494 1831 
L 3494 4666 
L 4128 4666 
L 4128 1753 
Q 4128 841 3676 375 
Q 3225 -91 2344 -91 
Q 1459 -91 1007 375 
Q 556 841 556 1753 
L 556 4666 
z
" transform="scale(0.015625)"/>
       </defs>
       <use xlink:href="#DejaVuSans-55"/>
       <use xlink:href="#DejaVuSans-54" x="73.193359"/>
      </g>
     </g>
    </g>
    <g id="xtick_13">
     <g id="line2d_13">
      <g>
       <use xlink:href="#mbebeec0297" x="408.176471" y="384.48" style="stroke: #000000; stroke-width: 0.8"/>
      </g>
     </g>
     <g id="text_13">
      <!-- WI -->
      <g transform="translate(410.935846 404.3175)rotate(-90)scale(0.1 -0.1)">
       <use xlink:href="#DejaVuSans-57"/>
       <use xlink:href="#DejaVuSans-49" x="98.876953"/>
      </g>
     </g>
    </g>
    <g id="xtick_14">
     <g id="line2d_14">
      <g>
       <use xlink:href="#mbebeec0297" x="427.870588" y="384.48" style="stroke: #000000; stroke-width: 0.8"/>
      </g>
     </g>
     <g id="text_14">
      <!-- MI -->
      <g transform="translate(430.629963 403.058125)rotate(-90)scale(0.1 -0.1)">
       <use xlink:href="#DejaVuSans-4d"/>
       <use xlink:href="#DejaVuSans-49" x="86.279297"/>
      </g>
     </g>
    </g>
    <g id="xtick_15">
     <g id="line2d_15">
      <g>
       <use xlink:href="#mbebeec0297" x="447.564706" y="384.48" style="stroke: #000000; stroke-width: 0.8"/>
      </g>
     </g>
     <g id="text_15">
      <!-- ME -->
      <g transform="translate(450.324081 406.426875)rotate(-90)scale(0.1 -0.1)">
       <defs>
        <path id="DejaVuSans-45" d="M 628 4666 
L 3578 4666 
L 3578 4134 
L 1259 4134 
L 1259 2753 
L 3481 2753 
L 3481 2222 
L 1259 2222 
L 1259 531 
L 3634 531 
L 3634 0 
L 628 0 
L 628 4666 
z
" transform="scale(0.015625)"/>
       </defs>
       <use xlink:href="#DejaVuSans-4d"/>
       <use xlink:href="#DejaVuSans-45" x="86.279297"/>
      </g>
     </g>
    </g>
    <g id="xtick_16">
     <g id="line2d_16">
      <g>
       <use xlink:href="#mbebeec0297" x="467.258824" y="384.48" style="stroke: #000000; stroke-width: 0.8"/>
      </g>
     </g>
     <g id="text_16">
      <!-- MA -->
      <g transform="translate(470.018199 406.94875)rotate(-90)scale(0.1 -0.1)">
       <use xlink:href="#DejaVuSans-4d"/>
       <use xlink:href="#DejaVuSans-41" x="86.279297"/>
      </g>
     </g>
    </g>
    <g id="xtick_17">
     <g id="line2d_17">
      <g>
       <use xlink:href="#mbebeec0297" x="486.952941" y="384.48" style="stroke: #000000; stroke-width: 0.8"/>
      </g>
     </g>
     <g id="text_17">
      <!-- MD -->
      <g transform="translate(489.712316 407.808125)rotate(-90)scale(0.1 -0.1)">
       <use xlink:href="#DejaVuSans-4d"/>
       <use xlink:href="#DejaVuSans-44" x="86.279297"/>
      </g>
     </g>
    </g>
    <g id="xtick_18">
     <g id="line2d_18">
      <g>
       <use xlink:href="#mbebeec0297" x="506.647059" y="384.48" style="stroke: #000000; stroke-width: 0.8"/>
      </g>
     </g>
     <g id="text_18">
      <!-- VT -->
      <g transform="translate(509.406434 404.428438)rotate(-90)scale(0.1 -0.1)">
       <use xlink:href="#DejaVuSans-56"/>
       <use xlink:href="#DejaVuSans-54" x="68.408203"/>
      </g>
     </g>
    </g>
    <g id="xtick_19">
     <g id="line2d_19">
      <g>
       <use xlink:href="#mbebeec0297" x="526.341176" y="384.48" style="stroke: #000000; stroke-width: 0.8"/>
      </g>
     </g>
     <g id="text_19">
      <!-- MT -->
      <g transform="translate(529.100551 406.215937)rotate(-90)scale(0.1 -0.1)">
       <use xlink:href="#DejaVuSans-4d"/>
       <use xlink:href="#DejaVuSans-54" x="86.279297"/>
      </g>
     </g>
    </g>
    <g id="xtick_20">
     <g id="line2d_20">
      <g>
       <use xlink:href="#mbebeec0297" x="546.035294" y="384.48" style="stroke: #000000; stroke-width: 0.8"/>
      </g>
     </g>
     <g id="text_20">
      <!-- RI -->
      <g transform="translate(548.794669 401.378438)rotate(-90)scale(0.1 -0.1)">
       <use xlink:href="#DejaVuSans-52"/>
       <use xlink:href="#DejaVuSans-49" x="69.482422"/>
      </g>
     </g>
    </g>
    <g id="xtick_21">
     <g id="line2d_21">
      <g>
       <use xlink:href="#mbebeec0297" x="565.729412" y="384.48" style="stroke: #000000; stroke-width: 0.8"/>
      </g>
     </g>
     <g id="text_21">
      <!-- KY -->
      <g transform="translate(568.488787 403.783125)rotate(-90)scale(0.1 -0.1)">
       <defs>
        <path id="DejaVuSans-4b" d="M 628 4666 
L 1259 4666 
L 1259 2694 
L 3353 4666 
L 4166 4666 
L 1850 2491 
L 4331 0 
L 3500 0 
L 1259 2247 
L 1259 0 
L 628 0 
L 628 4666 
z
" transform="scale(0.015625)"/>
       </defs>
       <use xlink:href="#DejaVuSans-4b"/>
       <use xlink:href="#DejaVuSans-59" x="61.951172"/>
      </g>
     </g>
    </g>
    <g id="xtick_22">
     <g id="line2d_22">
      <g>
       <use xlink:href="#mbebeec0297" x="585.423529" y="384.48" style="stroke: #000000; stroke-width: 0.8"/>
      </g>
     </g>
     <g id="text_22">
      <!-- MS -->
      <g transform="translate(588.182904 406.456563)rotate(-90)scale(0.1 -0.1)">
       <defs>
        <path id="DejaVuSans-53" d="M 3425 4513 
L 3425 3897 
Q 3066 4069 2747 4153 
Q 2428 4238 2131 4238 
Q 1616 4238 1336 4038 
Q 1056 3838 1056 3469 
Q 1056 3159 1242 3001 
Q 1428 2844 1947 2747 
L 2328 2669 
Q 3034 2534 3370 2195 
Q 3706 1856 3706 1288 
Q 3706 609 3251 259 
Q 2797 -91 1919 -91 
Q 1588 -91 1214 -16 
Q 841 59 441 206 
L 441 856 
Q 825 641 1194 531 
Q 1563 422 1919 422 
Q 2459 422 2753 634 
Q 3047 847 3047 1241 
Q 3047 1584 2836 1778 
Q 2625 1972 2144 2069 
L 1759 2144 
Q 1053 2284 737 2584 
Q 422 2884 422 3419 
Q 422 4038 858 4394 
Q 1294 4750 2059 4750 
Q 2388 4750 2728 4690 
Q 3069 4631 3425 4513 
z
" transform="scale(0.015625)"/>
       </defs>
       <use xlink:href="#DejaVuSans-4d"/>
       <use xlink:href="#DejaVuSans-53" x="86.279297"/>
      </g>
     </g>
    </g>
    <g id="xtick_23">
     <g id="line2d_23">
      <g>
       <use xlink:href="#mbebeec0297" x="605.117647" y="384.48" style="stroke: #000000; stroke-width: 0.8"/>
      </g>
     </g>
     <g id="text_23">
      <!-- CT -->
      <g transform="translate(607.877022 404.570625)rotate(-90)scale(0.1 -0.1)">
       <defs>
        <path id="DejaVuSans-43" d="M 4122 4306 
L 4122 3641 
Q 3803 3938 3442 4084 
Q 3081 4231 2675 4231 
Q 1875 4231 1450 3742 
Q 1025 3253 1025 2328 
Q 1025 1406 1450 917 
Q 1875 428 2675 428 
Q 3081 428 3442 575 
Q 3803 722 4122 1019 
L 4122 359 
Q 3791 134 3420 21 
Q 3050 -91 2638 -91 
Q 1578 -91 968 557 
Q 359 1206 359 2328 
Q 359 3453 968 4101 
Q 1578 4750 2638 4750 
Q 3056 4750 3426 4639 
Q 3797 4528 4122 4306 
z
" transform="scale(0.015625)"/>
       </defs>
       <use xlink:href="#DejaVuSans-43"/>
       <use xlink:href="#DejaVuSans-54" x="69.824219"/>
      </g>
     </g>
    </g>
    <g id="xtick_24">
     <g id="line2d_24">
      <g>
       <use xlink:href="#mbebeec0297" x="624.811765" y="384.48" style="stroke: #000000; stroke-width: 0.8"/>
      </g>
     </g>
     <g id="text_24">
      <!-- KS -->
      <g transform="translate(627.57114 404.38625)rotate(-90)scale(0.1 -0.1)">
       <use xlink:href="#DejaVuSans-4b"/>
       <use xlink:href="#DejaVuSans-53" x="65.576172"/>
      </g>
     </g>
    </g>
    <g id="xtick_25">
     <g id="line2d_25">
      <g>
       <use xlink:href="#mbebeec0297" x="644.505882" y="384.48" style="stroke: #000000; stroke-width: 0.8"/>
      </g>
     </g>
     <g id="text_25">
      <!-- WA -->
      <g transform="translate(647.265257 407.658125)rotate(-90)scale(0.1 -0.1)">
       <use xlink:href="#DejaVuSans-57"/>
       <use xlink:href="#DejaVuSans-41" x="93.376953"/>
      </g>
     </g>
    </g>
    <g id="xtick_26">
     <g id="line2d_26">
      <g>
       <use xlink:href="#mbebeec0297" x="664.2" y="384.48" style="stroke: #000000; stroke-width: 0.8"/>
      </g>
     </g>
     <g id="text_26">
      <!-- IN -->
      <g transform="translate(666.959375 401.91125)rotate(-90)scale(0.1 -0.1)">
       <use xlink:href="#DejaVuSans-49"/>
       <use xlink:href="#DejaVuSans-4e" x="29.492188"/>
      </g>
     </g>
    </g>
    <g id="xtick_27">
     <g id="line2d_27">
      <g>
       <use xlink:href="#mbebeec0297" x="683.894118" y="384.48" style="stroke: #000000; stroke-width: 0.8"/>
      </g>
     </g>
     <g id="text_27">
      <!-- CO -->
      <g transform="translate(686.653493 406.334688)rotate(-90)scale(0.1 -0.1)">
       <use xlink:href="#DejaVuSans-43"/>
       <use xlink:href="#DejaVuSans-4f" x="69.824219"/>
      </g>
     </g>
    </g>
    <g id="xtick_28">
     <g id="line2d_28">
      <g>
       <use xlink:href="#mbebeec0297" x="703.588235" y="384.48" style="stroke: #000000; stroke-width: 0.8"/>
      </g>
     </g>
     <g id="text_28">
      <!-- NH -->
      <g transform="translate(706.34761 406.481562)rotate(-90)scale(0.1 -0.1)">
       <use xlink:href="#DejaVuSans-4e"/>
       <use xlink:href="#DejaVuSans-48" x="74.804688"/>
      </g>
     </g>
    </g>
    <g id="xtick_29">
     <g id="line2d_29">
      <g>
       <use xlink:href="#mbebeec0297" x="723.282353" y="384.48" style="stroke: #000000; stroke-width: 0.8"/>
      </g>
     </g>
     <g id="text_29">
      <!-- DE -->
      <g transform="translate(726.041728 405.49875)rotate(-90)scale(0.1 -0.1)">
       <use xlink:href="#DejaVuSans-44"/>
       <use xlink:href="#DejaVuSans-45" x="77.001953"/>
      </g>
     </g>
    </g>
    <g id="xtick_30">
     <g id="line2d_30">
      <g>
       <use xlink:href="#mbebeec0297" x="742.976471" y="384.48" style="stroke: #000000; stroke-width: 0.8"/>
      </g>
     </g>
     <g id="text_30">
      <!-- MO -->
      <g transform="translate(745.735846 407.98)rotate(-90)scale(0.1 -0.1)">
       <use xlink:href="#DejaVuSans-4d"/>
       <use xlink:href="#DejaVuSans-4f" x="86.279297"/>
      </g>
     </g>
    </g>
    <g id="xtick_31">
     <g id="line2d_31">
      <g>
       <use xlink:href="#mbebeec0297" x="762.670588" y="384.48" style="stroke: #000000; stroke-width: 0.8"/>
      </g>
     </g>
     <g id="text_31">
      <!-- AR -->
      <g transform="translate(765.429963 405.269063)rotate(-90)scale(0.1 -0.1)">
       <use xlink:href="#DejaVuSans-41"/>
       <use xlink:href="#DejaVuSans-52" x="68.408203"/>
      </g>
     </g>
    </g>
    <g id="xtick_32">
     <g id="line2d_32">
      <g>
       <use xlink:href="#mbebeec0297" x="782.364706" y="384.48" style="stroke: #000000; stroke-width: 0.8"/>
      </g>
     </g>
     <g id="text_32">
      <!-- NM -->
      <g transform="translate(785.124081 407.589375)rotate(-90)scale(0.1 -0.1)">
       <use xlink:href="#DejaVuSans-4e"/>
       <use xlink:href="#DejaVuSans-4d" x="74.804688"/>
      </g>
     </g>
    </g>
    <g id="xtick_33">
     <g id="line2d_33">
      <g>
       <use xlink:href="#mbebeec0297" x="802.058824" y="384.48" style="stroke: #000000; stroke-width: 0.8"/>
      </g>
     </g>
     <g id="text_33">
      <!-- NC -->
      <g transform="translate(804.818199 405.944063)rotate(-90)scale(0.1 -0.1)">
       <use xlink:href="#DejaVuSans-4e"/>
       <use xlink:href="#DejaVuSans-43" x="74.804688"/>
      </g>
     </g>
    </g>
    <g id="xtick_34">
     <g id="line2d_34">
      <g>
       <use xlink:href="#mbebeec0297" x="821.752941" y="384.48" style="stroke: #000000; stroke-width: 0.8"/>
      </g>
     </g>
     <g id="text_34">
      <!-- SC -->
      <g transform="translate(824.512316 404.81125)rotate(-90)scale(0.1 -0.1)">
       <use xlink:href="#DejaVuSans-53"/>
       <use xlink:href="#DejaVuSans-43" x="63.476562"/>
      </g>
     </g>
    </g>
    <g id="xtick_35">
     <g id="line2d_35">
      <g>
       <use xlink:href="#mbebeec0297" x="841.447059" y="384.48" style="stroke: #000000; stroke-width: 0.8"/>
      </g>
     </g>
     <g id="text_35">
      <!-- FL -->
      <g transform="translate(844.206434 402.803438)rotate(-90)scale(0.1 -0.1)">
       <defs>
        <path id="DejaVuSans-46" d="M 628 4666 
L 3309 4666 
L 3309 4134 
L 1259 4134 
L 1259 2759 
L 3109 2759 
L 3109 2228 
L 1259 2228 
L 1259 0 
L 628 0 
L 628 4666 
z
" transform="scale(0.015625)"/>
       </defs>
       <use xlink:href="#DejaVuSans-46"/>
       <use xlink:href="#DejaVuSans-4c" x="57.519531"/>
      </g>
     </g>
    </g>
    <g id="xtick_36">
     <g id="line2d_36">
      <g>
       <use xlink:href="#mbebeec0297" x="861.141176" y="384.48" style="stroke: #000000; stroke-width: 0.8"/>
      </g>
     </g>
     <g id="text_36">
      <!-- NV -->
      <g transform="translate(863.900551 405.801875)rotate(-90)scale(0.1 -0.1)">
       <use xlink:href="#DejaVuSans-4e"/>
       <use xlink:href="#DejaVuSans-56" x="74.804688"/>
      </g>
     </g>
    </g>
    <g id="xtick_37">
     <g id="line2d_37">
      <g>
       <use xlink:href="#mbebeec0297" x="880.835294" y="384.48" style="stroke: #000000; stroke-width: 0.8"/>
      </g>
     </g>
     <g id="text_37">
      <!-- OK -->
      <g transform="translate(883.594669 405.909688)rotate(-90)scale(0.1 -0.1)">
       <use xlink:href="#DejaVuSans-4f"/>
       <use xlink:href="#DejaVuSans-4b" x="78.710938"/>
      </g>
     </g>
    </g>
    <g id="xtick_38">
     <g id="line2d_38">
      <g>
       <use xlink:href="#mbebeec0297" x="900.529412" y="384.48" style="stroke: #000000; stroke-width: 0.8"/>
      </g>
     </g>
     <g id="text_38">
      <!-- TN -->
      <g transform="translate(903.288787 405.069063)rotate(-90)scale(0.1 -0.1)">
       <use xlink:href="#DejaVuSans-54"/>
       <use xlink:href="#DejaVuSans-4e" x="61.083984"/>
      </g>
     </g>
    </g>
    <g id="xtick_39">
     <g id="line2d_39">
      <g>
       <use xlink:href="#mbebeec0297" x="920.223529" y="384.48" style="stroke: #000000; stroke-width: 0.8"/>
      </g>
     </g>
     <g id="text_39">
      <!-- AZ -->
      <g transform="translate(922.982904 405.170625)rotate(-90)scale(0.1 -0.1)">
       <defs>
        <path id="DejaVuSans-5a" d="M 359 4666 
L 4025 4666 
L 4025 4184 
L 1075 531 
L 4097 531 
L 4097 0 
L 288 0 
L 288 481 
L 3238 4134 
L 359 4134 
L 359 4666 
z
" transform="scale(0.015625)"/>
       </defs>
       <use xlink:href="#DejaVuSans-41"/>
       <use xlink:href="#DejaVuSans-5a" x="68.408203"/>
      </g>
     </g>
    </g>
    <g id="xtick_40">
     <g id="line2d_40">
      <g>
       <use xlink:href="#mbebeec0297" x="939.917647" y="384.48" style="stroke: #000000; stroke-width: 0.8"/>
      </g>
     </g>
     <g id="text_40">
      <!-- DC -->
      <g transform="translate(942.677022 406.162813)rotate(-90)scale(0.1 -0.1)">
       <use xlink:href="#DejaVuSans-44"/>
       <use xlink:href="#DejaVuSans-43" x="77.001953"/>
      </g>
     </g>
    </g>
    <g id="xtick_41">
     <g id="line2d_41">
      <g>
       <use xlink:href="#mbebeec0297" x="959.611765" y="384.48" style="stroke: #000000; stroke-width: 0.8"/>
      </g>
     </g>
     <g id="text_41">
      <!-- IL -->
      <g transform="translate(962.37114 400.001875)rotate(-90)scale(0.1 -0.1)">
       <use xlink:href="#DejaVuSans-49"/>
       <use xlink:href="#DejaVuSans-4c" x="29.492188"/>
      </g>
     </g>
    </g>
    <g id="xtick_42">
     <g id="line2d_42">
      <g>
       <use xlink:href="#mbebeec0297" x="979.305882" y="384.48" style="stroke: #000000; stroke-width: 0.8"/>
      </g>
     </g>
     <g id="text_42">
      <!-- NE -->
      <g transform="translate(982.065257 405.28)rotate(-90)scale(0.1 -0.1)">
       <use xlink:href="#DejaVuSans-4e"/>
       <use xlink:href="#DejaVuSans-45" x="74.804688"/>
      </g>
     </g>
    </g>
    <g id="xtick_43">
     <g id="line2d_43">
      <g>
       <use xlink:href="#mbebeec0297" x="999" y="384.48" style="stroke: #000000; stroke-width: 0.8"/>
      </g>
     </g>
     <g id="text_43">
      <!-- ND -->
      <g transform="translate(1001.759375 406.66125)rotate(-90)scale(0.1 -0.1)">
       <use xlink:href="#DejaVuSans-4e"/>
       <use xlink:href="#DejaVuSans-44" x="74.804688"/>
      </g>
     </g>
    </g>
    <g id="xtick_44">
     <g id="line2d_44">
      <g>
       <use xlink:href="#mbebeec0297" x="1018.694118" y="384.48" style="stroke: #000000; stroke-width: 0.8"/>
      </g>
     </g>
     <g id="text_44">
      <!-- HI -->
      <g transform="translate(1021.453493 401.950312)rotate(-90)scale(0.1 -0.1)">
       <use xlink:href="#DejaVuSans-48"/>
       <use xlink:href="#DejaVuSans-49" x="75.195312"/>
      </g>
     </g>
    </g>
    <g id="xtick_45">
     <g id="line2d_45">
      <g>
       <use xlink:href="#mbebeec0297" x="1038.388235" y="384.48" style="stroke: #000000; stroke-width: 0.8"/>
      </g>
     </g>
     <g id="text_45">
      <!-- SD -->
      <g transform="translate(1041.14761 405.528437)rotate(-90)scale(0.1 -0.1)">
       <use xlink:href="#DejaVuSans-53"/>
       <use xlink:href="#DejaVuSans-44" x="63.476562"/>
      </g>
     </g>
    </g>
    <g id="xtick_46">
     <g id="line2d_46">
      <g>
       <use xlink:href="#mbebeec0297" x="1058.082353" y="384.48" style="stroke: #000000; stroke-width: 0.8"/>
      </g>
     </g>
     <g id="text_46">
      <!-- GA -->
      <g transform="translate(1060.841728 406.069063)rotate(-90)scale(0.1 -0.1)">
       <defs>
        <path id="DejaVuSans-47" d="M 3809 666 
L 3809 1919 
L 2778 1919 
L 2778 2438 
L 4434 2438 
L 4434 434 
Q 4069 175 3628 42 
Q 3188 -91 2688 -91 
Q 1594 -91 976 548 
Q 359 1188 359 2328 
Q 359 3472 976 4111 
Q 1594 4750 2688 4750 
Q 3144 4750 3555 4637 
Q 3966 4525 4313 4306 
L 4313 3634 
Q 3963 3931 3569 4081 
Q 3175 4231 2741 4231 
Q 1884 4231 1454 3753 
Q 1025 3275 1025 2328 
Q 1025 1384 1454 906 
Q 1884 428 2741 428 
Q 3075 428 3337 486 
Q 3600 544 3809 666 
z
" transform="scale(0.015625)"/>
       </defs>
       <use xlink:href="#DejaVuSans-47"/>
       <use xlink:href="#DejaVuSans-41" x="77.490234"/>
      </g>
     </g>
    </g>
    <g id="xtick_47">
     <g id="line2d_47">
      <g>
       <use xlink:href="#mbebeec0297" x="1077.776471" y="384.48" style="stroke: #000000; stroke-width: 0.8"/>
      </g>
     </g>
     <g id="text_47">
      <!-- LA -->
      <g transform="translate(1080.535846 404.1175)rotate(-90)scale(0.1 -0.1)">
       <use xlink:href="#DejaVuSans-4c"/>
       <use xlink:href="#DejaVuSans-41" x="57.962891"/>
      </g>
     </g>
    </g>
    <g id="xtick_48">
     <g id="line2d_48">
      <g>
       <use xlink:href="#mbebeec0297" x="1097.470588" y="384.48" style="stroke: #000000; stroke-width: 0.8"/>
      </g>
     </g>
     <g id="text_48">
      <!-- PA -->
      <g transform="translate(1100.229963 403.712812)rotate(-90)scale(0.1 -0.1)">
       <defs>
        <path id="DejaVuSans-50" d="M 1259 4147 
L 1259 2394 
L 2053 2394 
Q 2494 2394 2734 2622 
Q 2975 2850 2975 3272 
Q 2975 3691 2734 3919 
Q 2494 4147 2053 4147 
L 1259 4147 
z
M 628 4666 
L 2053 4666 
Q 2838 4666 3239 4311 
Q 3641 3956 3641 3272 
Q 3641 2581 3239 2228 
Q 2838 1875 2053 1875 
L 1259 1875 
L 1259 0 
L 628 0 
L 628 4666 
z
" transform="scale(0.015625)"/>
       </defs>
       <use xlink:href="#DejaVuSans-50"/>
       <use xlink:href="#DejaVuSans-41" x="53.927734"/>
      </g>
     </g>
    </g>
    <g id="xtick_49">
     <g id="line2d_49">
      <g>
       <use xlink:href="#mbebeec0297" x="1117.164706" y="384.48" style="stroke: #000000; stroke-width: 0.8"/>
      </g>
     </g>
     <g id="text_49">
      <!-- AK -->
      <g transform="translate(1119.924081 404.878438)rotate(-90)scale(0.1 -0.1)">
       <use xlink:href="#DejaVuSans-41"/>
       <use xlink:href="#DejaVuSans-4b" x="68.408203"/>
      </g>
     </g>
    </g>
    <g id="xtick_50">
     <g id="line2d_50">
      <g>
       <use xlink:href="#mbebeec0297" x="1136.858824" y="384.48" style="stroke: #000000; stroke-width: 0.8"/>
      </g>
     </g>
     <g id="text_50">
      <!-- IA -->
      <g transform="translate(1139.618199 401.270625)rotate(-90)scale(0.1 -0.1)">
       <use xlink:href="#DejaVuSans-49"/>
       <use xlink:href="#DejaVuSans-41" x="29.492188"/>
      </g>
     </g>
    </g>
    <g id="xtick_51">
     <g id="line2d_51">
      <g>
       <use xlink:href="#mbebeec0297" x="1156.552941" y="384.48" style="stroke: #000000; stroke-width: 0.8"/>
      </g>
     </g>
     <g id="text_51">
      <!-- CA -->
      <g transform="translate(1159.312316 405.303438)rotate(-90)scale(0.1 -0.1)">
       <use xlink:href="#DejaVuSans-43"/>
       <use xlink:href="#DejaVuSans-41" x="69.824219"/>
      </g>
     </g>
    </g>
   </g>
   <g id="matplotlib.axis_2">
    <g id="ytick_1">
     <g id="line2d_52">
      <defs>
       <path id="mabc58bf13b" d="M 0 0 
L -3.5 0 
" style="stroke: #000000; stroke-width: 0.8"/>
      </defs>
      <g>
       <use xlink:href="#mabc58bf13b" x="162" y="384.48" style="stroke: #000000; stroke-width: 0.8"/>
      </g>
     </g>
     <g id="text_52">
      <!-- 0 -->
      <g transform="translate(148.6375 388.279219)scale(0.1 -0.1)">
       <defs>
        <path id="DejaVuSans-30" d="M 2034 4250 
Q 1547 4250 1301 3770 
Q 1056 3291 1056 2328 
Q 1056 1369 1301 889 
Q 1547 409 2034 409 
Q 2525 409 2770 889 
Q 3016 1369 3016 2328 
Q 3016 3291 2770 3770 
Q 2525 4250 2034 4250 
z
M 2034 4750 
Q 2819 4750 3233 4129 
Q 3647 3509 3647 2328 
Q 3647 1150 3233 529 
Q 2819 -91 2034 -91 
Q 1250 -91 836 529 
Q 422 1150 422 2328 
Q 422 3509 836 4129 
Q 1250 4750 2034 4750 
z
" transform="scale(0.015625)"/>
       </defs>
       <use xlink:href="#DejaVuSans-30"/>
      </g>
     </g>
    </g>
    <g id="ytick_2">
     <g id="line2d_53">
      <g>
       <use xlink:href="#mabc58bf13b" x="162" y="344.378734" style="stroke: #000000; stroke-width: 0.8"/>
      </g>
     </g>
     <g id="text_53">
      <!-- 20 -->
      <g transform="translate(142.275 348.177953)scale(0.1 -0.1)">
       <defs>
        <path id="DejaVuSans-32" d="M 1228 531 
L 3431 531 
L 3431 0 
L 469 0 
L 469 531 
Q 828 903 1448 1529 
Q 2069 2156 2228 2338 
Q 2531 2678 2651 2914 
Q 2772 3150 2772 3378 
Q 2772 3750 2511 3984 
Q 2250 4219 1831 4219 
Q 1534 4219 1204 4116 
Q 875 4013 500 3803 
L 500 4441 
Q 881 4594 1212 4672 
Q 1544 4750 1819 4750 
Q 2544 4750 2975 4387 
Q 3406 4025 3406 3419 
Q 3406 3131 3298 2873 
Q 3191 2616 2906 2266 
Q 2828 2175 2409 1742 
Q 1991 1309 1228 531 
z
" transform="scale(0.015625)"/>
       </defs>
       <use xlink:href="#DejaVuSans-32"/>
       <use xlink:href="#DejaVuSans-30" x="63.623047"/>
      </g>
     </g>
    </g>
    <g id="ytick_3">
     <g id="line2d_54">
      <g>
       <use xlink:href="#mabc58bf13b" x="162" y="304.277468" style="stroke: #000000; stroke-width: 0.8"/>
      </g>
     </g>
     <g id="text_54">
      <!-- 40 -->
      <g transform="translate(142.275 308.076687)scale(0.1 -0.1)">
       <defs>
        <path id="DejaVuSans-34" d="M 2419 4116 
L 825 1625 
L 2419 1625 
L 2419 4116 
z
M 2253 4666 
L 3047 4666 
L 3047 1625 
L 3713 1625 
L 3713 1100 
L 3047 1100 
L 3047 0 
L 2419 0 
L 2419 1100 
L 313 1100 
L 313 1709 
L 2253 4666 
z
" transform="scale(0.015625)"/>
       </defs>
       <use xlink:href="#DejaVuSans-34"/>
       <use xlink:href="#DejaVuSans-30" x="63.623047"/>
      </g>
     </g>
    </g>
    <g id="ytick_4">
     <g id="line2d_55">
      <g>
       <use xlink:href="#mabc58bf13b" x="162" y="264.176203" style="stroke: #000000; stroke-width: 0.8"/>
      </g>
     </g>
     <g id="text_55">
      <!-- 60 -->
      <g transform="translate(142.275 267.975421)scale(0.1 -0.1)">
       <defs>
        <path id="DejaVuSans-36" d="M 2113 2584 
Q 1688 2584 1439 2293 
Q 1191 2003 1191 1497 
Q 1191 994 1439 701 
Q 1688 409 2113 409 
Q 2538 409 2786 701 
Q 3034 994 3034 1497 
Q 3034 2003 2786 2293 
Q 2538 2584 2113 2584 
z
M 3366 4563 
L 3366 3988 
Q 3128 4100 2886 4159 
Q 2644 4219 2406 4219 
Q 1781 4219 1451 3797 
Q 1122 3375 1075 2522 
Q 1259 2794 1537 2939 
Q 1816 3084 2150 3084 
Q 2853 3084 3261 2657 
Q 3669 2231 3669 1497 
Q 3669 778 3244 343 
Q 2819 -91 2113 -91 
Q 1303 -91 875 529 
Q 447 1150 447 2328 
Q 447 3434 972 4092 
Q 1497 4750 2381 4750 
Q 2619 4750 2861 4703 
Q 3103 4656 3366 4563 
z
" transform="scale(0.015625)"/>
       </defs>
       <use xlink:href="#DejaVuSans-36"/>
       <use xlink:href="#DejaVuSans-30" x="63.623047"/>
      </g>
     </g>
    </g>
    <g id="ytick_5">
     <g id="line2d_56">
      <g>
       <use xlink:href="#mabc58bf13b" x="162" y="224.074937" style="stroke: #000000; stroke-width: 0.8"/>
      </g>
     </g>
     <g id="text_56">
      <!-- 80 -->
      <g transform="translate(142.275 227.874155)scale(0.1 -0.1)">
       <defs>
        <path id="DejaVuSans-38" d="M 2034 2216 
Q 1584 2216 1326 1975 
Q 1069 1734 1069 1313 
Q 1069 891 1326 650 
Q 1584 409 2034 409 
Q 2484 409 2743 651 
Q 3003 894 3003 1313 
Q 3003 1734 2745 1975 
Q 2488 2216 2034 2216 
z
M 1403 2484 
Q 997 2584 770 2862 
Q 544 3141 544 3541 
Q 544 4100 942 4425 
Q 1341 4750 2034 4750 
Q 2731 4750 3128 4425 
Q 3525 4100 3525 3541 
Q 3525 3141 3298 2862 
Q 3072 2584 2669 2484 
Q 3125 2378 3379 2068 
Q 3634 1759 3634 1313 
Q 3634 634 3220 271 
Q 2806 -91 2034 -91 
Q 1263 -91 848 271 
Q 434 634 434 1313 
Q 434 1759 690 2068 
Q 947 2378 1403 2484 
z
M 1172 3481 
Q 1172 3119 1398 2916 
Q 1625 2713 2034 2713 
Q 2441 2713 2670 2916 
Q 2900 3119 2900 3481 
Q 2900 3844 2670 4047 
Q 2441 4250 2034 4250 
Q 1625 4250 1398 4047 
Q 1172 3844 1172 3481 
z
" transform="scale(0.015625)"/>
       </defs>
       <use xlink:href="#DejaVuSans-38"/>
       <use xlink:href="#DejaVuSans-30" x="63.623047"/>
      </g>
     </g>
    </g>
    <g id="ytick_6">
     <g id="line2d_57">
      <g>
       <use xlink:href="#mabc58bf13b" x="162" y="183.973671" style="stroke: #000000; stroke-width: 0.8"/>
      </g>
     </g>
     <g id="text_57">
      <!-- 100 -->
      <g transform="translate(135.9125 187.77289)scale(0.1 -0.1)">
       <defs>
        <path id="DejaVuSans-31" d="M 794 531 
L 1825 531 
L 1825 4091 
L 703 3866 
L 703 4441 
L 1819 4666 
L 2450 4666 
L 2450 531 
L 3481 531 
L 3481 0 
L 794 0 
L 794 531 
z
" transform="scale(0.015625)"/>
       </defs>
       <use xlink:href="#DejaVuSans-31"/>
       <use xlink:href="#DejaVuSans-30" x="63.623047"/>
       <use xlink:href="#DejaVuSans-30" x="127.246094"/>
      </g>
     </g>
    </g>
    <g id="ytick_7">
     <g id="line2d_58">
      <g>
       <use xlink:href="#mabc58bf13b" x="162" y="143.872405" style="stroke: #000000; stroke-width: 0.8"/>
      </g>
     </g>
     <g id="text_58">
      <!-- 120 -->
      <g transform="translate(135.9125 147.671624)scale(0.1 -0.1)">
       <use xlink:href="#DejaVuSans-31"/>
       <use xlink:href="#DejaVuSans-32" x="63.623047"/>
       <use xlink:href="#DejaVuSans-30" x="127.246094"/>
      </g>
     </g>
    </g>
    <g id="ytick_8">
     <g id="line2d_59">
      <g>
       <use xlink:href="#mabc58bf13b" x="162" y="103.771139" style="stroke: #000000; stroke-width: 0.8"/>
      </g>
     </g>
     <g id="text_59">
      <!-- 140 -->
      <g transform="translate(135.9125 107.570358)scale(0.1 -0.1)">
       <use xlink:href="#DejaVuSans-31"/>
       <use xlink:href="#DejaVuSans-34" x="63.623047"/>
       <use xlink:href="#DejaVuSans-30" x="127.246094"/>
      </g>
     </g>
    </g>
    <g id="ytick_9">
     <g id="line2d_60">
      <g>
       <use xlink:href="#mabc58bf13b" x="162" y="63.669873" style="stroke: #000000; stroke-width: 0.8"/>
      </g>
     </g>
     <g id="text_60">
      <!-- 160 -->
      <g transform="translate(135.9125 67.469092)scale(0.1 -0.1)">
       <use xlink:href="#DejaVuSans-31"/>
       <use xlink:href="#DejaVuSans-36" x="63.623047"/>
       <use xlink:href="#DejaVuSans-30" x="127.246094"/>
      </g>
     </g>
    </g>
   </g>
   <g id="patch_54">
    <path d="M 162 384.48 
L 162 51.84 
" style="fill: none; stroke: #000000; stroke-width: 0.8; stroke-linejoin: miter; stroke-linecap: square"/>
   </g>
   <g id="patch_55">
    <path d="M 1166.4 384.48 
L 1166.4 51.84 
" style="fill: none; stroke: #000000; stroke-width: 0.8; stroke-linejoin: miter; stroke-linecap: square"/>
   </g>
   <g id="patch_56">
    <path d="M 162 384.48 
L 1166.4 384.48 
" style="fill: none; stroke: #000000; stroke-width: 0.8; stroke-linejoin: miter; stroke-linecap: square"/>
   </g>
   <g id="patch_57">
    <path d="M 162 51.84 
L 1166.4 51.84 
" style="fill: none; stroke: #000000; stroke-width: 0.8; stroke-linejoin: miter; stroke-linecap: square"/>
   </g>
  </g>
 </g>
 <defs>
  <clipPath id="pf78ff0836a">
   <rect x="162" y="51.84" width="1004.4" height="332.64"/>
  </clipPath>
 </defs>
</svg>
